# xmcd CD database file
#
# Track frame offsets:
#	150
#	12912
#	27840
#	42122
#	52420
#	67515
#	87025
#	93637
#	108075
#	121770
#	135825
#	158212
#
# Disc length: 2314 seconds
#
# Revision: 0
# Processed by: cddbd v1.5.2PL0 Copyright (c) Steve Scherf et al.
# Submitted via: CDex 1.51
#
DISCID=8709080c
DTITLE=Stefan Grossman - Hot Dog
DYEAR=1972
DGENRE=Blues
TTITLE0=Medley: Hot Dogs, Cincinatti Flow Rag, New York City Rag
TTITLE1=Roll And Tumble Blues
TTITLE2=Shake Sugaree
TTITLE3=Martin's Joy
TTITLE4=Promised Land
TTITLE5=Candyman
TTITLE6=Morning Comes
TTITLE7=Take A Whiff On Me
TTITLE8=The Do It All Over You Boogie
TTITLE9=Blues For Mr. Sam
TTITLE10=Medley: Vestapol, That's No Way To Get Along
TTITLE11=Those Lazy Blues
EXTD=YEAR: 1972
EXTT0=
EXTT1=
EXTT2=
EXTT3=
EXTT4=
EXTT5=
EXTT6=
EXTT7=
EXTT8=
EXTT9=
EXTT10=
EXTT11=
PLAYORDER=
